<?xml version="1.0" standalone="no"?>
<!DOCTYPE svg PUBLIC "-//W3C//DTD SVG 20010904//EN"
 "http://www.w3.org/TR/2001/REC-SVG-20010904/DTD/svg10.dtd">
<svg version="1.0" xmlns="http://www.w3.org/2000/svg"
 width="1000.000000pt" height="1000.000000pt" viewBox="0 0 1000.000000 1000.000000"
 preserveAspectRatio="xMidYMid meet">
<metadata>
Created by potrace 1.14, written by Peter Selinger 2001-2017
</metadata>
<g transform="translate(0.000000,1000.000000) scale(0.100000,-0.100000)"
fill="#000000" stroke="none">
<path d="M1525 8450 l-1530 -1530 3450 -3450 3450 -3450 637 637 638 638 0
1485 0 1485 -635 635 -635 635 0 -1858 c0 -1021 -3 -1857 -8 -1857 -4 0 -1153
1146 -2555 2548 l-2547 2547 891 898 891 897 1081 0 1082 0 582 -582 583 -583
0 900 0 900 -318 318 -317 317 -1605 0 -1605 0 -1530 -1530z"/>
<path d="M4649 7604 c-396 -71 -720 -381 -822 -784 -18 -70 -21 -113 -21 -245
1 -139 4 -172 26 -256 107 -397 421 -689 825 -765 120 -22 325 -15 443 15 100
26 241 91 331 152 224 150 386 404 434 678 29 161 86 86 -518 689 l-532 532
-45 -1 c-25 0 -79 -7 -121 -15z"/>
<path d="M8769 7604 c-265 -48 -519 -213 -670 -435 -57 -84 -123 -228 -149
-324 -28 -102 -38 -321 -20 -433 65 -407 367 -737 773 -843 115 -30 321 -37
441 -15 478 90 826 487 853 972 29 525 -343 988 -866 1079 -102 18 -260 18
-362 -1z"/>
</g>
</svg>
